<?xml version="1.0" standalone="no"?>
<!DOCTYPE svg PUBLIC "-//W3C//DTD SVG 20010904//EN"
 "http://www.w3.org/TR/2001/REC-SVG-20010904/DTD/svg10.dtd">
<svg version="1.0" xmlns="http://www.w3.org/2000/svg"
 width="15920.000000pt" height="15080.000000pt" viewBox="0 0 1920.000000 1080.000000"
 preserveAspectRatio="xMidYMid meet">

<g transform="translate(-700.000000,1580.000000) scale(0.18000,-0.18000)"
fill="#000000" stroke="none">
<path d="M8630 8422 c-520 -285 -1285 -704 -1700 -931 -920 -503 -884 -482
-900 -521 -16 -38 0 -82 36 -99 18 -8 498 -11 1784 -11 l1760 0 0 1040 c0 984
-1 1040 -17 1040 -10 0 -443 -233 -963 -518z"/>
<path d="M6063 6689 c-30 -15 -48 -33 -62 -63 -21 -42 -21 -44 -21 -2321 l0
-2279 21 -42 c15 -31 32 -48 63 -63 42 -21 46 -21 1794 -21 l1752 0 0 344 0
343 118 7 c512 30 949 199 1237 477 219 212 337 481 258 587 -63 85 -188 96
-255 24 -14 -15 -42 -65 -62 -112 -47 -109 -88 -170 -167 -248 -222 -220 -599
-364 -1016 -389 l-113 -6 0 1891 0 1892 -1752 0 -1753 0 -42 -21z m2409 -413
c114 -38 211 -100 308 -196 157 -155 251 -337 306 -591 26 -118 26 -400 0
-518 -55 -254 -149 -436 -306 -591 -96 -95 -192 -157 -308 -197 -68 -24 -92
-27 -207 -27 -115 0 -139 3 -207 27 -116 40 -212 102 -308 197 -219 216 -324
493 -324 850 0 178 13 274 59 415 109 334 356 587 636 650 98 22 254 14 351
-19z m-277 -2565 c54 -25 70 -45 110 -140 47 -113 82 -165 172 -252 92 -89
164 -139 292 -203 216 -109 543 -186 787 -186 l54 0 0 -172 0 -171 -137 6
c-369 16 -759 138 -1042 325 -159 105 -330 290 -403 437 -39 76 -78 192 -78
229 0 46 37 97 90 124 53 27 101 28 155 3z"/>
<path d="M8175 6016 c-86 -21 -156 -65 -235 -145 -92 -93 -166 -232 -207 -386
-22 -87 -26 -120 -26 -255 0 -135 4 -168 26 -255 75 -288 255 -494 466 -536
193 -38 401 94 519 331 31 61 64 147 79 205 22 87 26 120 26 255 0 135 -4 168
-26 255 -41 154 -115 293 -207 386 -131 133 -269 181 -415 145z"/>
<path d="M10805 6294 c-332 -70 -610 -407 -686 -834 -18 -97 -18 -363 0 -460
52 -291 210 -565 406 -706 220 -157 476 -185 704 -78 232 109 407 323 499 614
44 141 57 227 57 400 0 173 -13 259 -57 400 -150 472 -530 746 -923 664z m224
-275 c120 -27 268 -146 343 -274 181 -312 181 -718 0 -1030 -49 -83 -172 -203
-245 -239 -123 -58 -241 -58 -363 0 -74 36 -197 155 -246 239 -124 214 -166
484 -114 730 39 180 110 319 221 430 130 131 261 177 404 144z"/>
</g>
</svg>
